PathFileType	4	(X/Y/Z)	18_2_rein_84_p0_0-583.trc
DataRate	CameraRate	NumFrames	NumMarkers	Units	OrigDataRate	OrigDataStartFrame	OrigNumFrames
60.0	60.0	7	27	m	60.0	365	584
Frame#	Time	RHip			RKnee			RAnkle			RBigToe			RSmallToe			RHeel			LHip			LKnee			LAnkle			LBigToe			LSmallToe			LHeel			Neck			Head			Nose			RShoulder			RElbow			RWrist			RThumb			RIndex			RPinky			LShoulder			LElbow			LWrist			LThumb			LIndex			LPinky			
		X1	Y1	Z1	X2	Y2	Z2	X3	Y3	Z3	X4	Y4	Z4	X5	Y5	Z5	X6	Y6	Z6	X7	Y7	Z7	X8	Y8	Z8	X9	Y9	Z9	X10	Y10	Z10	X11	Y11	Z11	X12	Y12	Z12	X13	Y13	Z13	X14	Y14	Z14	X15	Y15	Z15	X16	Y16	Z16	X17	Y17	Z17	X18	Y18	Z18	X19	Y19	Z19	X20	Y20	Z20	X21	Y21	Z21	X22	Y22	Z22	X23	Y23	Z23	X24	Y24	Z24	X25	Y25	Z25	X26	Y26	Z26	X27	Y27	Z27	
365	6.083333333333333	0.2613002610418667	0.4461099379718582	1.2043762483176046	0.24010152468656246	0.5011204952148675	1.62389493223588	0.2364663566859675	0.5828759624354191	2.008836504044655	0.2163559743709321	0.3956289593800386	2.0371696258892733	0.2723304832897797	0.410709379088453	2.0365551822316923	0.22172291100919017	0.6938972161236316	2.086403280310007	0.047255708568057816	0.42310797799217564	1.197864734881273	0.04407258162574391	0.5132290169037383	1.622512000686359	0.04017179375341452	0.5691382984543261	2.017952939079723	0.07070440043776999	0.43542606382796684	2.0528389694183553	0.007043521862597733	0.45584194938328054	2.0524255311180077	0.04506643167485469	0.6380785702057831	2.071702995991427	0.15784600997657464	0.3660672852042537	0.7066786142357548	0.15196089747306005	0.3072580881861155	0.4726401295467299	0.14242710374766193	0.2058773531804644	0.5970272986747253	0.3073360449111259	0.3247524349636129	0.7759685635363438	0.30415429521775494	0.30340056079044736	1.0255192838304144	0.22405218046777123	0.15011490855354576	1.2074866326222085	0.11534918311199843	0.13312939205367147	1.2706428758980337	0.1220072092024954	0.1496315218034484	1.323425894128639	0.1787916410395393	0.15799448803229016	1.3449134105902778	0.026889913515828135	0.3713983218580612	0.7731622346260478	0.0032843335057075604	0.3054751442446225	0.990714410427438	0.07986804438367529	0.13004491028143159	1.1755628817191968	0.1516425899638376	0.07433219246225785	1.2398425147128656	0.14865797074255138	0.06740723679523418	1.2640507561009229	0.11886387645464142	0.13602837893795516	1.2894930491863135
366	6.1	0.26075205301142945	0.4473224040668156	1.2085878530745573	0.23946101448127752	0.5027992868137591	1.6280582161811634	0.23645197273022406	0.5829920264059288	2.0088298825513173	0.21638789560676286	0.3957917500941869	2.037153290617592	0.2723153503890104	0.4108905582494142	2.036519851104275	0.22170175429944955	0.6939154118501863	2.0861755372302637	0.046183811866467105	0.42574595200984194	1.198589963894101	0.044094117803406774	0.513300275273331	1.6229485094446212	0.040161506233361316	0.5690868314820157	2.0179802707540566	0.070724786484395	0.43579528665204736	2.052992198596692	0.007073522378011598	0.4557579695777056	2.052404395082734	0.04498569575962045	0.6375271740745194	2.0714254065909543	0.15793539781001462	0.3660912724803384	0.7067041155874878	0.1519895582691848	0.3072366760303889	0.47268877904077317	0.14244554716410276	0.20573080298374316	0.597021185567372	0.30734864195158246	0.32480281886895623	0.7759437798204365	0.3003962042490878	0.29082702074216454	1.0309757343667278	0.22723632384443612	0.13649342964884903	1.2007703759255355	0.11530087153442593	0.13279444583058275	1.2708034614955053	0.12586974892127345	0.14061212216142663	1.317366976111573	0.18358258833508084	0.14526843782746204	1.3382743584480417	0.026930865041899708	0.3714944308896093	0.7731590734112639	0.003351974655521747	0.3052322506996799	0.9906731497211521	0.0837501945380927	0.1187043317790338	1.176028225232173	0.1557286645041464	0.0627139620315007	1.2370343247763607	0.15264790145530066	0.05646829226625562	1.261265429323617	0.12279618668686725	0.12438052952654322	1.2899115757822386
367	6.116666666666666	0.26125326480127614	0.4479992155723529	1.2003150887469292	0.2434388036119567	0.5174538305573148	1.6325625190297892	0.24017704519333175	0.5982173966951083	2.01505792136783	0.21468028281673565	0.40863728235457997	2.043158483516829	0.2759085642034186	0.424929459489771	2.0430423779378346	0.22290633411388427	0.6925628776064962	2.0804256429242685	0.04684319686543046	0.42489052771451047	1.1947143811350354	0.04412583421669624	0.5134190828875992	1.6230543013621563	0.0401775398421228	0.5691091670257447	2.0179088028919066	0.07644455534430947	0.42429158900350267	2.0508635254926224	0.0072092895088318515	0.45632997065879727	2.0534110211122423	0.04499792151283074	0.6380200985999642	2.0715973876170692	0.1536320984866119	0.36526838780842713	0.7067456035464702	0.14797906185120122	0.31870073974605406	0.47583311854239085	0.14253174981206668	0.20554633900633518	0.5969908795164187	0.30727162414961334	0.32454461816985025	0.7757625807049592	0.30383362141030307	0.30233380894372824	1.032702715131951	0.2271869978785788	0.13600478742677552	1.2006632221316147	0.11713827241181594	0.11066097168714623	1.2653854505614044	0.13068574597020782	0.12683643314982868	1.3174794121966307	0.18291009264578406	0.1440132745279972	1.3412569741648717	0.02692122406986355	0.37125054120712636	0.7732110626465496	0.0037008974561057607	0.30343313850336767	0.9936234502563148	0.08361792982097506	0.1189425670198435	1.179297068688076	0.15305961058473863	0.05215191494175089	1.2349328107943216	0.15220832293311298	0.0533246341238511	1.2571199208482204	0.12130003825876746	0.1207823434246171	1.2945503214906933
368	6.133333333333334	0.260528858322915	0.44906730996395106	1.2046634367394835	0.23845104516829946	0.5046541877788729	1.6327989597837964	0.24019851012693536	0.5983026899759843	2.0151312559683965	0.21467830907130153	0.408577270413338	2.043211269183073	0.27591502773658355	0.4247699626537092	2.0429803239738513	0.22177678110223134	0.6940629482540208	2.085660916726866	0.04576720388433563	0.42728372353671623	1.1950737510029097	0.04375490174038435	0.515236929948724	1.6203461114958648	0.040202554439134904	0.5691365474898271	2.0178551322841667	0.07190785396264417	0.4404292071364527	2.0587117868897344	0.007213187384782757	0.4563609298539202	2.05337396526517	0.04969660862794634	0.6420011491368379	2.0732747307976607	0.15367198287260064	0.3652594386878209	0.7067816745042698	0.14796301641905754	0.3185996443915281	0.4758949140724112	0.1398173474022161	0.19450560286511273	0.5969947259305104	0.3070084262110956	0.3253030047147123	0.7792089344741503	0.3003336590933562	0.29041558577727594	1.0308255996662294	0.22410780340989048	0.12491416397953996	1.1982893457175194	0.1147877722686489	0.12223233679342076	1.2651006736128458	0.12289395481381	0.13871756381283992	1.3130008999757943	0.17905772025231656	0.13035415225285532	1.3380224912732166	0.026984824123987203	0.37142234063482626	0.773120389432344	-0.0029695429867478093	0.2910307410722032	0.9885959033170743	0.08440806594467638	0.1183530517160565	1.1689480727353296	0.1560396470946092	0.06238316453769243	1.237224036956407	0.1563961983481836	0.06490390667906046	1.2602726587964517	0.127974023411293	0.1159656744685611	1.2888758944780678
369	6.15	0.25640438567504076	0.44962261093181	1.2011051793520064	0.23853489886447587	0.5042709379594003	1.6325684507984923	0.2402256759417343	0.598252818563406	2.0150133100871046	0.21473420630905904	0.40861245532848073	2.043201340937245	0.2759798454074444	0.4247972797516805	2.0430199721326194	0.22174472737630682	0.6940678005820601	2.085863786205536	0.045495948485177115	0.4274290423705783	1.1953601708572135	0.043064115591032806	0.514577362317835	1.628403089351397	0.040161978166670054	0.5690631784006615	2.017981351656364	0.07189094555940671	0.4400846558774128	2.058518715631538	0.007111520881146895	0.4564686040616653	2.0533575971208884	0.04972260263430665	0.6420547739602702	2.0733669420883483	0.15803457075866964	0.3658985834492288	0.706742915928436	0.14799900046618047	0.31868409085500554	0.4757990309625846	0.14658479664282967	0.19377050523637213	0.5938379506615635	0.3073818103777265	0.3244469446879124	0.7757993170372633	0.2999897643934946	0.29187838639544245	1.0271286188208137	0.22349498025215916	0.12261086204563137	1.1938287049627399	0.11829946334715911	0.11051672166075967	1.2620485542668494	0.12151924874004588	0.12861858898322245	1.2949715044626182	0.17289062637126673	0.10684026997930171	1.3211138670535114	0.026889165099112843	0.3690346062963285	0.7692054776077264	-0.003031820235538676	0.2909089791891277	0.9886360375815778	0.0845934745058302	0.11745734227173547	1.1686247245642896	0.1528402795320331	0.06119763062411936	1.2298048242220554	0.1567456355446492	0.06525769319102016	1.2530921520855043	0.1287018138933151	0.11375230976012465	1.273400880523402
370	6.166666666666667	0.25977505720880606	0.45158722779343297	1.205494594611201	0.23747340834058822	0.5055079571298617	1.6371132831119777	0.23652243044783935	0.5832222055561349	2.008517907985527	0.21470518480325496	0.40830592968966883	2.043266326911449	0.27596093530711596	0.42485456267086896	2.0430934345392897	0.22176553054920198	0.6942090445759145	2.0854963362923904	0.045083117076586555	0.4325100978257138	1.201230859097663	0.04305858624734246	0.5146514894701483	1.6289648898854165	0.03898976905187073	0.5705395124891809	2.022646526112688	0.07078505297432917	0.44153484424879996	2.063621695892801	0.007134235426628671	0.45650681848250996	2.053401912167565	0.04975079414806052	0.6425570410100362	2.073568916203513	0.15800997268190256	0.3658474605907454	0.7066606094992218	0.14806235976034585	0.3186959435089905	0.47584456751796694	0.14664257421144858	0.19361589466356996	0.5937850768560968	0.3070914432705752	0.3250917176843291	0.7791389664146925	0.2999523611031316	0.29158205417122135	1.0269717573630395	0.22708323229137387	0.11177142372649258	1.187392931876814	0.12673505435165555	0.08540585097160398	1.251261553271833	0.12225912573116837	0.093238853577394	1.2777445047937956	0.1701154132369438	0.09269948336556665	1.309797653630002	0.027124623462955508	0.3712263569971622	0.7727638525821482	-0.0026508771649885166	0.29267573922962004	0.9929561433361364	0.08884979606896419	0.10581555260007869	1.1659442842552774	0.15675243012308307	0.06103692468731179	1.2328694053790812	0.15690149425285252	0.06250972322008896	1.245205648663292	0.1281026569787798	0.11200173690017524	1.2685625914190488
371	6.183333333333334	0.25978165163293904	0.451352235530599	1.2055898429850507	0.2375434933672894	0.505414809668678	1.6369990530047744	0.23647510622997994	0.5829137867728559	2.008747701228422	0.21468356963719099	0.40799446027597075	2.043080318901074	0.27589307807202046	0.42443619874042454	2.042760993045732	0.22174094726983812	0.6938910616401698	2.086097388260762	0.04546616516484826	0.431360478254562	1.2050291228368315	0.04312157392175531	0.5148717008579043	1.6285262918590453	0.03901476597894716	0.5706233844441702	2.0225967895557204	0.07069306547015759	0.44093841256289473	2.0633008025308657	0.007001097451717381	0.4562633508106428	2.0527580342801213	0.04974095229097652	0.6424196196082381	2.0735246713667785	0.1580425593088657	0.36573633069394973	0.7066242856004475	0.15225000308360762	0.3063247592478475	0.4762737968990263	0.1467364111249167	0.1935983805168397	0.5938049886899825	0.3068994454216386	0.3262730947135364	0.7755441690301037	0.2994579122031935	0.28969791935989897	1.0229055180213096	0.22592757188537654	0.10778630927093837	1.1788474674602942	0.12415579517433314	0.0753728872075729	1.2487466549447357	0.1212966561053154	0.10338464981012269	1.275984736840293	0.1698327065492654	0.09322397671648573	1.3102520962454904	0.027144860035670054	0.3714103005599426	0.7729369351927233	-0.0026737054570312485	0.29286896735095946	0.9930898960081621	0.08933890198605061	0.10472412269359807	1.1623117939572079	0.1568349142478433	0.06096916522193415	1.2327843742335527	0.15413350827635952	0.05314472213470637	1.242844130034066	0.12388763043319158	0.12444886323452298	1.2648763102929244
